<?xml version="1.0" encoding="UTF-8"?>
<svg id="Layer_1" data-name="Layer 1" xmlns="http://www.w3.org/2000/svg" viewBox="0 0 460 160">
  <defs>
    <style>
      .cls-1 {
        fill: #fff;
      }

      .cls-2 {
        fill: #cba6f7;
      }

      .cls-3 {
        fill: #181825;
      }
    </style>
  </defs>
  <rect class="cls-3" x="0" width="460" height="160" rx="18" ry="18"/>
  <g>
    <g>
      <path class="cls-3" d="M139.48,34.91c5.97,0,10.81,4.84,10.81,10.81v67.57c0,5.97-4.84,10.81-10.81,10.81h-67.57c-5.97,0-10.81-4.84-10.81-10.81V45.72c0-5.97,4.84-10.81,10.81-10.81h67.57"/>
      <path class="cls-2" d="M139.48,29.5h-67.57c-4.33,0-8.4,1.69-11.47,4.75-3.06,3.06-4.75,7.14-4.75,11.47v67.57c0,4.33,1.69,8.4,4.75,11.47,3.06,3.06,7.14,4.75,11.47,4.75h67.57c4.33,0,8.4-1.69,11.47-4.75,3.06-3.06,4.75-7.14,4.75-11.47V45.72c0-4.33-1.69-8.4-4.75-11.47-3.06-3.06-7.14-4.75-11.47-4.75h0ZM139.48,34.91c5.97,0,10.81,4.84,10.81,10.81v67.57c0,5.97-4.84,10.81-10.81,10.81h-67.57c-5.97,0-10.81-4.84-10.81-10.81V45.72c0-5.97,4.84-10.81,10.81-10.81h67.57"/>
      <g>
        <path class="cls-1" d="M73.45,64.08c-.53,0-1.06-.24-1.42-.69-.61-.78-.47-1.91.31-2.52l5.05-3.93-5.07-4.09c-.77-.62-.89-1.75-.27-2.52.62-.77,1.75-.89,2.52-.27l6.84,5.51c.43.34.67.86.67,1.41,0,.55-.26,1.06-.69,1.4l-6.84,5.32c-.33.25-.72.38-1.1.38Z"/>
        <path class="cls-1" d="M97.82,64.73h-11.11c-.99,0-1.79-.8-1.79-1.79s.8-1.79,1.79-1.79h11.11c.99,0,1.79.8,1.79,1.79s-.8,1.79-1.79,1.79Z"/>
      </g>
      <g>
        <path class="cls-2" d="M93.32,103.47c-.15.62-.43,1.28-.84,1.99-.41.71-.84,1.22-1.28,1.55-2.07-.06-3.66-.84-4.78-2.35-1.92,1.77-4,2.66-6.24,2.66-1.15,0-2.15-.18-3.01-.55-.86-.37-1.58-.86-2.17-1.48-.59-.62-1.03-1.34-1.33-2.15-.3-.81-.44-1.66-.44-2.55,0-1.27.23-2.38.69-3.34.46-.96,1.08-1.76,1.88-2.39.8-.63,1.73-1.11,2.79-1.44,1.06-.32,2.2-.49,3.41-.49.68,0,1.28,0,1.79.02.52.01.97.04,1.35.07v-.85c0-1.88-.96-2.82-2.88-2.82-1.24,0-3.41.49-6.51,1.46-.89-1.03-1.45-2.64-1.68-4.83.71-.27,1.5-.52,2.37-.75.87-.24,1.76-.44,2.68-.62.91-.18,1.82-.32,2.7-.42.89-.1,1.68-.16,2.39-.16,1.03,0,2.03.15,2.99.44.96.3,1.8.75,2.52,1.35.72.61,1.3,1.39,1.73,2.35.43.96.64,2.1.64,3.43v8.99c0,1.36.41,2.32,1.24,2.88ZM79.95,100.15c0,1.39.8,2.08,2.39,2.08.83,0,1.76-.43,2.79-1.28v-3.54c-.59-.03-1.08-.05-1.48-.07-.4-.01-.7-.02-.91-.02-1.86,0-2.79.95-2.79,2.83Z"/>
        <path class="cls-2" d="M97.26,105.55v-31.17l.31-.31h2.61c1.36,0,2.33.31,2.92.93.59.62.89,1.7.89,3.23v7.39c1.53-1,3.24-1.51,5.12-1.51,2.59,0,4.54,1.05,5.84,3.14,1.31,2.1,1.96,4.91,1.96,8.46,0,1.68-.27,3.22-.8,4.6-.53,1.39-1.27,2.58-2.21,3.59-.94,1-2.09,1.78-3.44,2.32-1.35.55-2.84.82-4.46.82-3.36,0-6.27-.5-8.75-1.51ZM107.04,89.65c-1.15,0-2.17.49-3.05,1.46v10.8c.29.06.61.1.95.13.34.03.7.04,1.08.04,2.57,0,3.85-2.23,3.85-6.68,0-3.81-.94-5.73-2.83-5.76Z"/>
        <path class="cls-2" d="M131.96,94.35v-.58c0-1.65-.18-2.86-.53-3.61-.35-.75-1.02-1.13-1.99-1.13-1.03,0-1.76.51-2.17,1.53-.41,1.02-.62,2.71-.62,5.07,0,1.18.08,2.17.24,2.97.16.8.4,1.44.71,1.93.31.49.7.84,1.17,1.06.47.22,1.03.33,1.68.33s1.43-.15,2.26-.44c.83-.29,1.71-.77,2.66-1.42.27.15.54.36.82.64.28.28.54.6.77.95.24.35.44.73.62,1.13.18.4.31.77.4,1.13-.97,1.03-2.24,1.86-3.81,2.48-1.56.62-3.16.93-4.78.93-3.16,0-5.58-1.03-7.26-3.1-1.68-2.07-2.52-5-2.52-8.81,0-1.95.27-3.64.82-5.09.55-1.45,1.27-2.64,2.17-3.59.9-.94,1.93-1.65,3.1-2.13,1.17-.47,2.38-.71,3.65-.71s2.49.18,3.56.53c1.08.35,2.01.86,2.79,1.51.78.65,1.39,1.42,1.82,2.32.43.9.64,1.9.64,2.99,0,1.24-.36,2.11-1.08,2.61-.72.5-1.62.75-2.68.75-.89,0-1.7-.09-2.43-.27Z"/>
      </g>
    </g>
    <g>
      <g>
        <path class="cls-1" d="M203.51,53.95l.91,5.24v3.84h12.57c.33,1.28.49,2.63.49,4.09s-.16,2.81-.49,4.08h-12.57v16.94c-2.01.25-3.65.37-5.61.37s-5.28-.37-5.28-.37v-42l.44-.36h27.05c.25,1,.38,2.25.38,3.75s-.43,2.61-1.3,3.33c-.87.72-2.23,1.08-4.09,1.08h-12.49Z"/>
        <path class="cls-1" d="M246.06,60.05c2.96,2.96,4.44,7.2,4.44,12.72,0,2.47-.32,4.71-.96,6.73-.64,2.02-1.56,3.73-2.78,5.15-1.21,1.42-2.71,2.51-4.47,3.27-1.77.76-3.81,1.14-6.11,1.14s-4.33-.39-6.08-1.17c-1.75-.78-3.23-1.88-4.44-3.3-1.21-1.42-2.13-3.14-2.75-5.15-.62-2.02-.93-4.24-.93-6.67s.31-4.7.93-6.7c.62-2,1.52-3.71,2.72-5.15,1.19-1.44,2.67-2.55,4.44-3.33,1.77-.78,3.81-1.17,6.11-1.17,4.07,0,7.37,1.21,9.88,3.64ZM236.21,63.63c-.91,0-1.65.22-2.21.65-.56.43-1.01,1.02-1.34,1.76-.33.74-.56,1.59-.68,2.56-.12.97-.19,2.01-.19,3.12,0,1.73.05,3.22.16,4.47.1,1.26.31,2.31.62,3.15.31.84.75,1.47,1.31,1.88.56.41,1.3.62,2.21.62,1.82,0,3.02-.79,3.61-2.38s.87-3.84.87-6.76-.29-5.22-.87-6.76-1.74-2.31-3.48-2.31Z"/>
        <path class="cls-1" d="M282.49,67.54v12.65c0,2.72.51,4.75,1.53,6.11-1.61,1.4-3.54,2.1-5.79,2.1s-3.71-.49-4.52-1.48-1.21-2.49-1.21-4.51v-12.92s.23-2.43-.14-3.09c-.37-.66-1.09-.99-2.16-.99-.62,0-1.32.16-2.1.49-.78.33-1.95,1.61-1.95,1.61v20.39c-.73.12-1.52.22-2.37.28-.85.06-1.73.09-2.62.09s-1.77-.03-2.62-.09c-.85-.06-1.64-.15-2.37-.28v-30.8l.45-.43h2.73c2.59,0,4.32,1.23,5.21,3.7,2.97-2.55,5.91-3.83,8.84-3.83s5.23,1,6.77,2.99c1.55,2,2.32,4.66,2.32,7.99Z"/>
        <path class="cls-1" d="M307.64,57.47c.24,1.09.35,2.18.35,3.27s-.12,2.16-.35,3.21l-7-.13v14.43c0,1.97.87,2.95,2.61,2.95h3.32c.51,1.52.77,2.91.77,4.17s-.08,2.17-.24,2.72c-2.93.42-5.62.63-8.07.63-4.98,0-7.48-2.91-7.48-8.74v-16.03l-4.63.06c-.28-1.04-.41-2.18-.41-3.41s.14-2.41.41-3.53l4.63.13v-3.66c0-2.15.39-3.67,1.16-4.57.77-.9,2.07-1.36,3.89-1.36h3.62l.41.44v9.54l7-.12Z"/>
        <path class="cls-1" d="M330.11,63.94l9.5-.06c4.28,0,6.41,2.05,6.41,6.14v16.16c-5.2,1.68-10.67,2.52-16.4,2.52-2.91,0-5.48-.49-7.72-1.47-2.24-.98-4.12-2.4-5.63-4.24s-2.65-4.11-3.42-6.79c-.77-2.68-1.15-5.72-1.15-9.12,0-3.73.53-6.97,1.6-9.74,1.07-2.76,2.5-5.07,4.3-6.91,1.79-1.84,3.86-3.23,6.2-4.15,2.34-.92,4.78-1.38,7.32-1.38,5.24,0,10.17,1.47,14.77,4.42-.04.66-.19,1.32-.45,2-.26.68-.59,1.33-.97,1.97s-.83,1.21-1.33,1.72c-.5.51-1.02.95-1.54,1.32-3.35-2.21-6.74-3.32-10.17-3.32-6.58,0-9.86,4.67-9.86,14.01s3.37,13.94,10.11,13.94c.93,0,1.83-.04,2.69-.12.87-.08,1.72-.2,2.57-.37v-4.12c0-.94,0-1.76.03-2.46.02-.7.05-1.29.09-1.78h-3.03c-1.74,0-2.93-.34-3.6-1.01s-1-1.73-1-3.16c0-1.23.22-2.56.67-3.99Z"/>
        <path class="cls-1" d="M377.35,75.74h-16.05c.08,1.83.55,3.26,1.41,4.28.86,1.02,2.28,1.53,4.24,1.53.98,0,2.12-.14,3.41-.42,1.29-.28,2.78-.74,4.46-1.37,1.35,1.4,2.19,3.29,2.52,5.68-3.29,2.35-7.33,3.52-12.1,3.52-2.59,0-4.76-.41-6.51-1.23-1.75-.82-3.17-1.98-4.26-3.46-1.09-1.48-1.86-3.23-2.31-5.25-.45-2.02-.68-4.22-.68-6.61s.28-4.43.83-6.39c.56-1.95,1.4-3.65,2.53-5.09,1.13-1.44,2.57-2.57,4.32-3.4,1.75-.82,3.8-1.23,6.14-1.23,1.98,0,3.75.33,5.34.99,1.58.66,2.93,1.56,4.04,2.72,1.11,1.15,1.96,2.53,2.56,4.14.6,1.61.9,3.35.9,5.25,0,2.51-.27,4.63-.8,6.36ZM361.54,69.38h8.09v-.68c0-1.52-.34-2.78-1.01-3.77-.67-.99-1.68-1.48-3.03-1.48s-2.28.46-2.91,1.39c-.63.93-1.01,2.44-1.13,4.54Z"/>
        <path class="cls-1" d="M401.14,57.47c.24,1.09.35,2.18.35,3.27s-.12,2.16-.35,3.21l-7-.13v14.43c0,1.97.87,2.95,2.61,2.95h3.32c.51,1.52.77,2.91.77,4.17s-.08,2.17-.24,2.72c-2.93.42-5.62.63-8.07.63-4.98,0-7.48-2.91-7.48-8.74v-16.03l-4.63.06c-.28-1.04-.41-2.18-.41-3.41s.14-2.41.41-3.53l4.63.13v-3.66c0-2.15.39-3.67,1.16-4.57.77-.9,2.07-1.36,3.89-1.36h3.62l.41.44v9.54l7-.12Z"/>
      </g>
      <g>
        <path class="cls-1" d="M195.98,113.71c0,1.89.29,3.3.88,4.24.59.94,1.49,1.41,2.71,1.41.7,0,1.33-.24,1.9-.71.57-.47,1.05-1.21,1.44-2.21l1.65.67c-1.03,2.57-2.7,3.85-5,3.85-1.82,0-3.21-.62-4.19-1.87s-1.47-3.04-1.47-5.39c0-4.76,1.85-7.13,5.55-7.13,2.34,0,3.95,1.16,4.83,3.47l-1.74.67c-.26-.78-.65-1.4-1.2-1.85-.54-.45-1.17-.68-1.88-.68-1.18,0-2.06.45-2.62,1.34-.57.89-.85,2.29-.85,4.18Z"/>
        <path class="cls-1" d="M208.96,121.13v-14.52h1.82v12.71h6.35v1.82h-8.17Z"/>
        <path class="cls-1" d="M220.76,106.6h9.08v1.82h-3.63v10.89h3.63v1.82h-9.08v-1.82h3.63v-10.89h-3.63v-1.82Z"/>
        <path class="cls-1" d="M249.81,108.42v5.45h7.26v1.82h-7.26v4.54h-1.82v-13.62h9.08v1.82h-7.26Z"/>
        <path class="cls-1" d="M270.38,115.15c0,1.89-.43,3.33-1.3,4.32-.87,1-2.12,1.5-3.75,1.5s-2.83-.5-3.68-1.51c-.85-1.01-1.28-2.44-1.28-4.31s.44-3.37,1.31-4.34c.87-.97,2.11-1.45,3.71-1.45,1.68,0,2.94.48,3.76,1.44.82.96,1.23,2.41,1.23,4.36ZM268.42,115.15c0-1.48-.24-2.59-.71-3.32-.47-.73-1.24-1.1-2.29-1.1s-1.85.37-2.35,1.12c-.5.75-.75,1.85-.75,3.3s.25,2.55.75,3.31c.5.76,1.24,1.13,2.24,1.13,1.1,0,1.89-.37,2.38-1.11.49-.74.74-1.85.74-3.33Z"/>
        <path class="cls-1" d="M281.58,120.22v-6.6c0-.98-.19-1.71-.57-2.19-.38-.48-.98-.71-1.81-.71-.9,0-1.63.33-2.2.98-.57.65-.86,1.54-.86,2.66v6.78h-1.82v-9.53c0-1.24-.02-1.99-.06-2.27h1.67s.01.12.02.27c0,.14.01.31.02.5,0,.19.02.54.03,1.06h.48c.7-1.38,1.86-2.07,3.47-2.07,1.16,0,2.02.32,2.59.95s.85,1.6.85,2.91v7.3h-1.82Z"/>
        <path class="cls-1" d="M287.93,111.14v-1.82h1.77l.61-2.72h1.25v2.72h3.63v1.82h-3.63v6.75c0,.54.13.95.4,1.21.27.26.71.39,1.32.39.85,0,1.78-.12,2.81-.35v1.37c-1.24.34-2.47.51-3.69.51s-2.08-.25-2.68-.76c-.6-.5-.89-1.3-.89-2.39v-6.74h-.91Z"/>
        <path class="cls-1" d="M321.52,121.13v-8.95c0-.93.01-1.62.03-2.07l.03-1.03c-.48,1.42-.83,2.42-1.06,3l-1.84,4.52h-.97l-1.72-4.91c-.12-.32-.46-1.32-1.74-3.01l.91,3.12v8.44h-1.82v-13.62h2.44l1.9,4.94c.14.36.38,1.13.7,2.33l.27-.91.45-1.41,1.9-4.95h2.32v14.52h-1.82Z"/>
        <path class="cls-1" d="M336.28,119.4c.2,0,.42-.02.67-.07v1.16c-.51.11-1.04.17-1.58.17-.76,0-1.31-.18-1.65-.54-.34-.36-.54-.93-.58-1.7h.64s-.98,1.65-1.59,2.02c-.61.37-1.37.55-2.26.55-1.09,0-1.91-.3-2.47-.89-.55-.59-.83-1.41-.83-2.44,0-2.41,1.57-3.63,4.7-3.77h2.9v-.55c-.45-.9-.63-1.55-1-1.95s-.95-.6-1.75-.6-1.4.15-1.76.44c-.36.29-.57.74-.64,1.35l-1.95-.18c.32-2.02,1.78-3.02,4.38-3.02,1.38,0,2.42.32,3.11.97s.52,2.8.52,2.8v4.61c0,.55.08.97.24,1.25.16.28.46.42.91.42ZM330.85,119.55c.66,0,1.25-.16,1.76-.48s.91-.74,1.19-1.27c.28-.53.42-1.08.42-1.65v-.92l-1.97.04c-.81.01-1.44.1-1.86.27-.43.17-.76.42-1,.76-.24.34-.36.8-.36,1.36s.15,1.02.46,1.37c.31.35.76.52,1.35.52Z"/>
        <path class="cls-1" d="M347.84,120.22v-6.6c0-.98-.19-1.71-.57-2.19-.38-.48-.98-.71-1.81-.71-.9,0-1.63.33-2.2.98-.57.65-.86,1.54-.86,2.66v6.78h-1.82v-9.53c0-1.24-.02-1.99-.06-2.27h1.67s.01.12.02.27c0,.14.01.31.02.5,0,.19.02.54.03,1.06h.48c.7-1.38,1.86-2.07,3.47-2.07,1.16,0,2.02.32,2.59.95s.85,1.6.85,2.91v7.3h-1.82Z"/>
        <path class="cls-1" d="M363.51,119.4c.2,0,.42-.02.67-.07v1.16c-.51.11-1.04.17-1.58.17-.76,0-1.31-.18-1.65-.54-.34-.36-.54-.93-.58-1.7h.18c-.43.82-.94,1.4-1.53,1.76-.59.36-1.31.54-2.18.54-1.05,0-1.84-.29-2.37-.87-.53-.58-.8-1.38-.8-2.39,0-2.35,1.51-3.54,4.53-3.58l2.35-.04v-.6c0-.88-.18-1.52-.53-1.9s-.91-.58-1.69-.58-1.35.14-1.7.43c-.35.28-.55.72-.62,1.31l-1.88-.17c.31-1.97,1.71-2.95,4.22-2.95,1.33,0,2.33.31,3,.94s1,1.54,1,2.73v4.69c0,.55.08.97.24,1.25.16.28.46.42.91.42ZM357.18,119.55c.66,0,1.25-.16,1.76-.48s.91-.74,1.19-1.27c.28-.53.42-1.08.42-1.65v-.92l-1.97.04c-.81.01-1.44.1-1.86.27-.43.17-.76.42-1,.76-.24.34-.36.8-.36,1.36s.15,1.02.46,1.37c.31.35.76.52,1.35.52Z"/>
        <path class="cls-1" d="M371.59,124.11c-1.14,0-2.05-.23-2.74-.68-.69-.45-1.13-1.1-1.32-1.94l1.87-.25c.11.49.36.87.75,1.13s.88.4,1.51.4c1.68,0,2.52-1.03,2.52-3.09v-1.28h-.02c-.35.74-.84,1.3-1.46,1.68s-1.36.57-2.22.57c-1.42,0-2.45-.46-3.11-1.39-.66-.93-.98-2.39-.98-4.38s.35-3.52,1.05-4.47,1.78-1.43,3.24-1.43c.81,0,1.51.19,2.11.56s1.06.91,1.38,1.61h.03c0-.2.01-.53.04-1,.03-.47.05-.74.08-.82h1.73c-.04.35-.06,1.09-.06,2.2v8.11c0,1.49-.36,2.6-1.07,3.35-.72.75-1.82,1.12-3.32,1.12ZM374.08,115.06c0-1.33-.26-2.38-.78-3.14s-1.23-1.14-2.13-1.14-1.63.33-2.05.99c-.42.66-.63,1.76-.63,3.3,0,1.04.09,1.87.26,2.47.18.6.45,1.04.82,1.32s.89.41,1.56.41c.59,0,1.1-.16,1.55-.49.44-.33.79-.81,1.03-1.44.24-.63.36-1.39.36-2.27Z"/>
        <path class="cls-1" d="M381.61,115.68c0,1.26.28,2.24.83,2.95.56.71,1.32,1.07,2.28,1.07.71,0,1.33-.15,1.87-.46.54-.31.89-.73,1.07-1.26l1.64.47c-.3.86-.86,1.51-1.67,1.97-.81.46-1.78.68-2.91.68-1.63,0-2.88-.51-3.76-1.52s-1.31-2.47-1.31-4.36.43-3.26,1.29-4.25c.86-.99,2.1-1.49,3.72-1.49s2.85.49,3.69,1.48c.84.99,1.25,2.48,1.25,4.47v.25h-7.99ZM384.74,110.47c-.93,0-1.66.3-2.2.91s-.82,1.43-.86,2.49h6.05c-.19-2.26-1.19-3.4-2.99-3.4Z"/>
        <path class="cls-1" d="M402.31,111.11c-.83-.14-1.62-.21-2.36-.21-1.2,0-2.16.44-2.89,1.32-.73.88-1.1,2-1.1,3.36v4.64h-.91v-6.71c-.41-.52-.46-1.14-.55-1.85-.09-.71-.4-2.33-.4-2.33h1.18c.3,1,.47,1.91.53,2.72h.06c.37-.81.73-1.41,1.09-1.79.36-.38.78-.67,1.27-.86s1.09-.29,1.79-.29c.77,0,1.54.06,2.29.18v1.82Z"/>
      </g>
    </g>
  </g>
</svg>