<?xml version="1.0" encoding="UTF-8"?>
<svg id="Layer_1" data-name="Layer 1" xmlns="http://www.w3.org/2000/svg" viewBox="0 0 500 600">
  <defs>
    <style>
      .cls-1 {
        fill: #fff;
      }

      .cls-2 {
        fill: #cba6f7;
      }

      .cls-3 {
        fill: #181825;
      }
    </style>
  </defs>
  <rect class="cls-3" x="25" y="75" width="450" height="450" rx="40" ry="40"/>
  <g>
    <g>
      <path class="cls-1" d="M146,386l1,5.77v4.23h13.85c.36,1.41.54,2.9.54,4.51s-.18,3.09-.54,4.49h-13.85v18.66c-2.22.27-4.02.41-6.18.41s-5.82-.41-5.82-.41v-46.26l.49-.4h29.8c.28,1.1.42,2.48.42,4.14s-.48,2.88-1.43,3.67c-.95.79-2.46,1.19-4.51,1.19h-13.76Z"/>
      <path class="cls-1" d="M192.87,392.72c3.26,3.26,4.9,7.93,4.9,14.01,0,2.72-.35,5.19-1.05,7.41-.7,2.22-1.72,4.11-3.06,5.68-1.34,1.56-2.98,2.77-4.93,3.6-1.95.84-4.19,1.26-6.73,1.26s-4.77-.43-6.7-1.29c-1.93-.86-3.56-2.07-4.9-3.64-1.34-1.56-2.35-3.46-3.03-5.68-.68-2.22-1.02-4.67-1.02-7.34s.34-5.18,1.02-7.38c.68-2.2,1.68-4.09,2.99-5.68,1.31-1.59,2.95-2.81,4.9-3.67,1.95-.86,4.19-1.29,6.73-1.29,4.49,0,8.11,1.34,10.88,4.01ZM182.03,396.66c-1,0-1.81.24-2.43.71-.62.48-1.11,1.12-1.47,1.94-.37.82-.62,1.76-.75,2.82-.14,1.07-.21,2.21-.21,3.43,0,1.9.06,3.55.17,4.93.11,1.38.34,2.54.68,3.47.34.93.82,1.62,1.44,2.07.62.45,1.43.68,2.43.68,2.01,0,3.33-.87,3.97-2.62s.96-4.23.96-7.45-.32-5.75-.96-7.45-1.92-2.55-3.83-2.55Z"/>
      <path class="cls-1" d="M233,400.97v13.94c0,2.99.56,5.24,1.68,6.73-1.78,1.54-3.9,2.31-6.38,2.31s-4.09-.54-4.97-1.63-1.33-2.74-1.33-4.96v-14.23s.25-2.67-.16-3.4c-.41-.72-1.2-1.09-2.38-1.09-.68,0-1.45.18-2.31.54-.86.36-2.15,1.77-2.15,1.77v22.46c-.8.14-1.67.24-2.61.31-.94.07-1.9.1-2.89.1s-1.95-.03-2.89-.1c-.94-.07-1.81-.17-2.61-.31v-33.93l.49-.48h3.01c2.85,0,4.76,1.36,5.74,4.08,3.27-2.81,6.52-4.22,9.74-4.22s5.76,1.1,7.46,3.3c1.7,2.2,2.56,5.13,2.56,8.81Z"/>
      <path class="cls-1" d="M260.71,389.87c.26,1.2.39,2.4.39,3.6s-.13,2.38-.39,3.53l-7.71-.14v15.89c0,2.17.96,3.25,2.88,3.25h3.66c.57,1.67.85,3.21.85,4.6s-.09,2.39-.26,3c-3.23.46-6.19.7-8.89.7-5.49,0-8.24-3.21-8.24-9.63v-17.66l-5.1.07c-.3-1.15-.46-2.4-.46-3.75s.15-2.65.46-3.89l5.1.14v-4.03c0-2.36.42-4.04,1.27-5.04.85-1,2.28-1.49,4.28-1.49h3.99l.46.49v10.51l7.71-.13Z"/>
      <path class="cls-1" d="M285.47,397l10.47-.07c4.71,0,7.07,2.26,7.07,6.77v17.8c-5.73,1.85-11.76,2.77-18.07,2.77-3.2,0-6.03-.54-8.5-1.62-2.47-1.08-4.53-2.64-6.2-4.67s-2.92-4.52-3.77-7.48c-.85-2.95-1.27-6.3-1.27-10.05,0-4.1.59-7.68,1.77-10.73,1.18-3.04,2.76-5.58,4.73-7.61,1.98-2.03,4.25-3.55,6.83-4.57,2.58-1.02,5.27-1.52,8.07-1.52,5.78,0,11.2,1.62,16.27,4.87-.04.72-.21,1.45-.5,2.2-.29.74-.65,1.47-1.07,2.17s-.91,1.33-1.47,1.89c-.56.56-1.12,1.05-1.7,1.45-3.69-2.44-7.42-3.65-11.2-3.65-7.24,0-10.87,5.14-10.87,15.43s3.71,15.36,11.13,15.36c1.02,0,2.01-.04,2.97-.14.96-.09,1.9-.23,2.83-.41v-4.53c0-1.04.01-1.94.03-2.71.02-.77.06-1.42.1-1.96h-3.33c-1.91,0-3.23-.37-3.97-1.12s-1.1-1.91-1.1-3.48c0-1.35.24-2.82.73-4.4Z"/>
      <path class="cls-1" d="M337.51,410h-17.68c.09,2.02.61,3.59,1.56,4.71.95,1.12,2.51,1.68,4.67,1.68,1.08,0,2.34-.15,3.76-.46,1.42-.31,3.06-.81,4.91-1.51,1.49,1.54,2.42,3.63,2.78,6.26-3.63,2.58-8.07,3.88-13.33,3.88-2.86,0-5.25-.45-7.17-1.36-1.93-.91-3.49-2.18-4.69-3.81-1.2-1.63-2.05-3.56-2.55-5.78-.5-2.22-.75-4.65-.75-7.28s.31-4.88.92-7.04c.61-2.15,1.54-4.02,2.79-5.61,1.25-1.59,2.83-2.83,4.76-3.74,1.93-.91,4.18-1.36,6.77-1.36,2.18,0,4.14.36,5.88,1.09,1.74.73,3.23,1.72,4.45,2.99,1.22,1.27,2.16,2.79,2.82,4.56.66,1.77.99,3.7.99,5.78,0,2.77-.29,5.1-.88,7ZM320.09,403h8.91v-.75c0-1.68-.37-3.06-1.11-4.15-.74-1.09-1.86-1.63-3.34-1.63s-2.51.51-3.21,1.53c-.7,1.02-1.11,2.69-1.25,5Z"/>
      <path class="cls-1" d="M363.71,389.87c.26,1.2.39,2.4.39,3.6s-.13,2.38-.39,3.53l-7.71-.14v15.89c0,2.17.96,3.25,2.88,3.25h3.66c.57,1.67.85,3.21.85,4.6s-.09,2.39-.26,3c-3.23.46-6.19.7-8.89.7-5.49,0-8.24-3.21-8.24-9.63v-17.66l-5.1.07c-.3-1.15-.46-2.4-.46-3.75s.15-2.65.46-3.89l5.1.14v-4.03c0-2.36.42-4.04,1.27-5.04.85-1,2.28-1.49,4.28-1.49h3.99l.46.49v10.51l7.71-.13Z"/>
    </g>
    <g>
      <path class="cls-1" d="M137.71,451.83c0,2.08.32,3.63.97,4.67.65,1.04,1.65,1.56,2.98,1.56.77,0,1.46-.26,2.09-.78.62-.52,1.15-1.33,1.58-2.44l1.81.74c-1.13,2.83-2.97,4.24-5.51,4.24-2,0-3.54-.69-4.61-2.06s-1.61-3.35-1.61-5.93c0-5.24,2.04-7.86,6.12-7.86,2.58,0,4.35,1.27,5.32,3.82l-1.92.74c-.28-.86-.72-1.54-1.32-2.04-.6-.5-1.29-.75-2.07-.75-1.3,0-2.26.49-2.89,1.47-.63.98-.94,2.52-.94,4.61Z"/>
      <path class="cls-1" d="M152,460v-16h2v14h7v2h-9Z"/>
      <path class="cls-1" d="M165,444h10v2h-4v12h4v2h-10v-2h4v-12h-4v-2Z"/>
      <path class="cls-1" d="M197,446v6h8v2h-8v5h-2v-15h10v2h-8Z"/>
      <path class="cls-1" d="M219.66,453.42c0,2.08-.48,3.66-1.43,4.76-.95,1.1-2.33,1.65-4.14,1.65s-3.12-.55-4.06-1.67c-.94-1.11-1.41-2.69-1.41-4.75s.48-3.72,1.44-4.79c.96-1.07,2.33-1.6,4.09-1.6,1.86,0,3.24.53,4.14,1.59.9,1.06,1.36,2.66,1.36,4.8ZM217.51,453.42c0-1.64-.26-2.86-.78-3.66-.52-.81-1.36-1.21-2.53-1.21s-2.04.41-2.59,1.23c-.55.82-.82,2.03-.82,3.64s.27,2.81.82,3.64c.55.83,1.37,1.25,2.46,1.25,1.21,0,2.08-.41,2.62-1.22.54-.81.81-2.04.81-3.67Z"/>
      <path class="cls-1" d="M232,459v-7.27c0-1.08-.21-1.89-.63-2.41-.42-.52-1.08-.79-2-.79-.99,0-1.79.36-2.43,1.08-.63.72-.95,1.7-.95,2.93v7.46h-2v-10.5c0-1.36-.02-2.2-.06-2.5h1.84s.01.13.02.29c0,.16.02.34.03.55.01.21.02.59.04,1.16h.53c.77-1.52,2.05-2.29,3.82-2.29,1.27,0,2.22.35,2.85,1.04s.94,1.76.94,3.2v8.04h-2Z"/>
      <path class="cls-1" d="M239,449v-2h1.95l.67-3h1.38v3h4v2h-4v7.44c0,.6.15,1.05.44,1.33.3.29.78.43,1.46.43.93,0,1.97-.13,3.1-.39v1.51c-1.37.37-2.72.56-4.07.56s-2.29-.28-2.95-.83c-.66-.55-.98-1.43-.98-2.63v-7.43h-1Z"/>
      <path class="cls-1" d="M276,460v-9.86c0-1.02.01-1.78.04-2.28l.04-1.14c-.53,1.56-.92,2.66-1.17,3.31l-2.02,4.98h-1.07l-1.89-5.41c-.14-.35-.5-1.46-1.91-3.32l1,3.43v9.3h-2v-15h2.69l2.1,5.44c.16.39.42,1.25.77,2.57l.3-1,.5-1.56,2.1-5.45h2.55v16h-2Z"/>
      <path class="cls-1" d="M292.26,458.1c.22,0,.46-.03.74-.08v1.28c-.57.12-1.15.18-1.74.18-.83,0-1.44-.2-1.82-.6-.38-.4-.59-1.02-.64-1.88h.7s-1.08,1.82-1.75,2.23c-.67.4-1.5.6-2.49.6-1.2,0-2.11-.33-2.72-.98-.61-.65-.91-1.55-.91-2.69,0-2.65,1.73-4,5.18-4.16h3.19v-.6c-.5-1-.7-1.71-1.1-2.15s-1.05-.66-1.93-.66-1.54.16-1.94.48c-.4.32-.63.81-.71,1.48l-2.14-.19c.35-2.22,1.96-3.33,4.83-3.33,1.52,0,2.66.36,3.43,1.07s.57,3.09.57,3.09v5.08c0,.61.09,1.07.26,1.37.18.31.51.46,1,.46ZM286.28,458.27c.73,0,1.38-.17,1.94-.52s1-.82,1.31-1.4c.31-.59.47-1.19.47-1.81v-1.02l-2.17.05c-.9.02-1.58.11-2.05.3-.47.18-.84.46-1.1.84-.26.38-.39.88-.39,1.5s.17,1.13.51,1.51c.34.38.84.57,1.49.57Z"/>
      <path class="cls-1" d="M305,459v-7.27c0-1.08-.21-1.89-.63-2.41-.42-.52-1.08-.79-2-.79-.99,0-1.79.36-2.43,1.08-.63.72-.95,1.7-.95,2.93v7.46h-2v-10.5c0-1.36-.02-2.2-.06-2.5h1.84s.01.13.02.29c0,.16.02.34.03.55.01.21.02.59.04,1.16h.53c.77-1.52,2.05-2.29,3.82-2.29,1.27,0,2.22.35,2.85,1.04s.94,1.76.94,3.2v8.04h-2Z"/>
      <path class="cls-1" d="M322.26,458.1c.22,0,.46-.03.74-.08v1.28c-.57.12-1.15.18-1.74.18-.83,0-1.44-.2-1.82-.6-.38-.4-.59-1.02-.64-1.88h.2c-.48.9-1.04,1.54-1.69,1.94-.65.39-1.45.59-2.4.59-1.16,0-2.03-.32-2.62-.96-.59-.64-.88-1.52-.88-2.63,0-2.59,1.66-3.9,4.99-3.94l2.59-.04v-.66c0-.97-.19-1.67-.58-2.1s-1.01-.64-1.86-.64-1.49.16-1.87.47c-.38.31-.61.79-.68,1.45l-2.07-.19c.34-2.17,1.89-3.25,4.65-3.25,1.46,0,2.57.35,3.3,1.04s1.1,1.7,1.1,3.01v5.17c0,.61.09,1.07.26,1.37.18.31.51.46,1,.46ZM315.28,458.27c.73,0,1.38-.17,1.94-.52s1-.82,1.31-1.4c.31-.59.47-1.19.47-1.81v-1.02l-2.17.05c-.9.02-1.58.11-2.05.3-.47.18-.84.46-1.1.84-.26.38-.39.88-.39,1.5s.17,1.13.51,1.51c.34.38.84.57,1.49.57Z"/>
      <path class="cls-1" d="M331.16,463.28c-1.25,0-2.26-.25-3.02-.75-.76-.5-1.24-1.21-1.45-2.14l2.06-.27c.13.54.4.96.82,1.25s.97.44,1.66.44c1.85,0,2.77-1.14,2.77-3.41v-1.41h-.02c-.39.81-.92,1.43-1.61,1.85s-1.5.63-2.45.63c-1.56,0-2.7-.51-3.43-1.53-.72-1.02-1.08-2.63-1.08-4.82s.39-3.88,1.16-4.93,1.96-1.58,3.57-1.58c.89,0,1.67.21,2.33.62s1.17,1,1.52,1.77h.03c0-.22.01-.58.04-1.1.03-.51.06-.82.09-.9h1.91c-.04.39-.07,1.2-.07,2.42v8.93c0,1.64-.39,2.87-1.18,3.69-.79.82-2.01,1.24-3.65,1.24ZM333.9,453.32c0-1.47-.28-2.62-.86-3.46s-1.35-1.26-2.35-1.26-1.8.36-2.26,1.09c-.46.73-.7,1.94-.7,3.63,0,1.15.1,2.06.29,2.72.19.67.5,1.15.91,1.45s.98.46,1.72.46c.65,0,1.22-.18,1.71-.54.49-.36.87-.89,1.13-1.59.27-.7.4-1.53.4-2.5Z"/>
      <path class="cls-1" d="M342.19,454c0,1.38.31,2.47.92,3.25.61.78,1.45,1.18,2.52,1.18.78,0,1.47-.17,2.06-.51.59-.34.98-.8,1.18-1.39l1.8.51c-.33.94-.95,1.66-1.84,2.17-.89.5-1.96.75-3.2.75-1.79,0-3.17-.56-4.14-1.68s-1.45-2.72-1.45-4.8.47-3.59,1.42-4.68c.95-1.09,2.31-1.64,4.1-1.64s3.14.54,4.06,1.63c.92,1.09,1.38,2.73,1.38,4.93v.27h-8.81ZM345.65,448.26c-1.02,0-1.82.33-2.42,1s-.91,1.58-.95,2.74h6.66c-.21-2.49-1.31-3.74-3.3-3.74Z"/>
      <path class="cls-1" d="M365,448.97c-.92-.15-1.78-.23-2.6-.23-1.32,0-2.38.48-3.19,1.45-.81.97-1.21,2.2-1.21,3.7v5.11h-1v-7.4c-.45-.58-.5-1.26-.61-2.04-.1-.78-.44-2.56-.44-2.56h1.3c.33,1.1.52,2.1.59,3h.06c.41-.9.81-1.55,1.2-1.97.39-.42.86-.74,1.4-.95s1.2-.32,1.97-.32c.85,0,1.69.07,2.53.2v2Z"/>
    </g>
  </g>
  <g>
    <path class="cls-3" d="M313.56,155.95c11.32,0,20.5,9.18,20.5,20.5v128.1c0,11.33-9.18,20.51-20.51,20.51h-128.08c-11.33,0-20.51-9.18-20.51-20.51v-128.08c0-11.33,9.18-20.51,20.51-20.51h127.71"/>
    <path class="cls-2" d="M314.19,146h-127.89c-7.24,0-14.35,2.32-19.95,6.91-7.29,5.98-11.36,14.63-11.36,23.9v127.89c0,7.24,2.32,14.35,6.91,19.95,5.98,7.29,14.63,11.36,23.9,11.36h127.89c7.24,0,14.35-2.32,19.95-6.91,7.29-5.98,11.36-14.63,11.36-23.9v-127.88c0-7.24-2.32-14.35-6.91-19.95-5.98-7.29-14.63-11.36-23.9-11.36h0ZM313.56,155.95c11.32,0,20.5,9.18,20.5,20.5v128.1c0,11.33-9.18,20.51-20.51,20.51h-128.08c-11.33,0-20.51-9.18-20.51-20.51v-128.08c0-11.33,9.18-20.51,20.51-20.51h127.71"/>
    <g>
      <path class="cls-1" d="M188.58,211.4c-1.01,0-2.02-.45-2.69-1.31-1.15-1.48-.89-3.62.6-4.78l9.58-7.45-9.63-7.76c-1.46-1.18-1.7-3.32-.52-4.79,1.18-1.46,3.32-1.7,4.79-.52l12.98,10.45c.81.65,1.28,1.64,1.27,2.68,0,1.04-.49,2.02-1.31,2.66l-12.98,10.09c-.62.48-1.36.72-2.09.72Z"/>
      <path class="cls-1" d="M235.06,212.65h-21.55c-1.48,0-2.85-.91-3.3-2.31-.79-2.42.99-4.65,3.29-4.65h21.55c1.48,0,2.85.91,3.3,2.31.79,2.42-.99,4.65-3.29,4.65Z"/>
    </g>
    <g>
      <path class="cls-2" d="M225.95,285.85c-.28,1.15-.8,2.39-1.57,3.71-.77,1.32-1.57,2.28-2.39,2.88-3.84-.11-6.81-1.57-8.9-4.37-3.57,3.29-7.44,4.94-11.61,4.94-2.14,0-4.01-.34-5.6-1.03-1.59-.69-2.94-1.61-4.04-2.76-1.1-1.15-1.92-2.48-2.47-3.99-.55-1.51-.82-3.09-.82-4.74,0-2.36.42-4.43,1.28-6.22.85-1.78,2.02-3.27,3.5-4.45,1.48-1.18,3.21-2.07,5.19-2.68,1.98-.6,4.09-.91,6.34-.91,1.26,0,2.37.01,3.34.04.96.03,1.8.07,2.51.12v-1.58c0-3.5-1.79-5.25-5.35-5.25-2.31,0-6.34.91-12.11,2.72-1.65-1.92-2.69-4.91-3.13-8.98,1.32-.49,2.79-.96,4.41-1.4,1.62-.44,3.28-.82,4.98-1.15,1.7-.33,3.38-.59,5.02-.78,1.65-.19,3.13-.29,4.45-.29,1.92,0,3.77.28,5.56.82,1.78.55,3.35,1.39,4.69,2.51,1.34,1.13,2.42,2.58,3.21,4.37.8,1.79,1.19,3.91,1.19,6.38v16.72c0,2.53.77,4.31,2.31,5.35ZM200.88,279.83c0,2.63,1.51,3.95,4.54,3.95,1.57,0,3.33-.81,5.29-2.44v-6.72c-1.12-.05-2.06-.1-2.81-.13-.76-.03-1.33-.04-1.72-.04-3.53,0-5.29,1.79-5.29,5.38Z"/>
      <path class="cls-2" d="M233.59,290.28v-59.14l.6-.59h5.02c2.61,0,4.48.59,5.62,1.76,1.13,1.18,1.7,3.22,1.7,6.13v14.03c2.94-1.9,6.22-2.86,9.84-2.86,4.97,0,8.72,1.99,11.23,5.96,2.51,3.98,3.77,9.32,3.77,16.04,0,3.19-.51,6.1-1.53,8.74-1.02,2.63-2.43,4.9-4.24,6.8-1.81,1.9-4.02,3.37-6.62,4.41-2.6,1.04-5.46,1.55-8.57,1.55-6.45,0-12.05-.95-16.81-2.86ZM252.31,259.92c-2.18,0-4.12.92-5.8,2.77v20.5c.56.11,1.16.2,1.81.25.64.06,1.33.08,2.06.08,4.87,0,7.31-4.23,7.31-12.68,0-7.22-1.79-10.86-5.38-10.92Z"/>
      <path class="cls-2" d="M299.24,268.83v-1.09c0-3.14-.34-5.42-1.01-6.85-.67-1.43-1.93-2.14-3.78-2.14-1.96,0-3.33.97-4.12,2.9-.79,1.93-1.18,5.14-1.18,9.62,0,2.24.15,4.12.46,5.63.31,1.51.76,2.73,1.34,3.65.59.92,1.33,1.6,2.23,2.02.9.42,1.96.63,3.19.63s2.72-.28,4.28-.84c1.57-.56,3.25-1.46,5.04-2.69.5.28,1.02.69,1.55,1.22.53.53,1.02,1.13,1.47,1.81.45.67.84,1.39,1.18,2.14.34.76.59,1.47.76,2.14-1.85,1.96-4.26,3.53-7.22,4.7-2.97,1.18-5.99,1.76-9.07,1.76-5.99,0-10.58-1.96-13.78-5.88-3.19-3.92-4.79-9.49-4.79-16.72,0-3.7.52-6.92,1.55-9.66,1.04-2.74,2.41-5.01,4.12-6.8,1.71-1.79,3.67-3.14,5.88-4.03,2.21-.9,4.52-1.34,6.93-1.34s4.72.34,6.76,1.01c2.04.67,3.81,1.62,5.29,2.86,1.48,1.23,2.63,2.7,3.44,4.41.81,1.71,1.22,3.6,1.22,5.67,0,2.35-.69,4-2.06,4.96-1.37.95-3.07,1.43-5.08,1.43-1.68,0-3.22-.17-4.62-.5Z"/>
    </g>
  </g>
</svg>