<?xml version="1.0" encoding="UTF-8"?>
<svg id="Layer_1" data-name="Layer 1" xmlns="http://www.w3.org/2000/svg" viewBox="0 0 512 512">
  <defs>
    <style>
      .cls-1 {
        fill: #fff;
      }

      .cls-2 {
        fill: #cba6f7;
      }

      .cls-3 {
        fill: #181825;
      }
    </style>
  </defs>
  <path class="cls-3" d="M429.4,27.42c30.59,0,55.39,24.8,55.39,55.39v346.25c0,30.57-24.78,55.35-55.35,55.35H83.14c-30.57,0-55.35-24.78-55.35-55.35V82.77c0-30.57,24.78-55.35,55.35-55.35h346.65"/>
  <path class="cls-2" d="M428.97,0H83.03c-22.18,0-43.03,8.64-58.71,24.32C8.64,40,0,60.85,0,83.03v345.95c0,22.18,8.64,43.03,24.32,58.71,15.68,15.68,36.53,24.32,58.71,24.32h345.95c22.18,0,43.03-8.64,58.71-24.32,15.68-15.68,24.32-36.53,24.32-58.71V83.03c0-22.18-8.64-43.03-24.32-58.71-15.68-15.68-36.53-24.32-58.71-24.32h0ZM428.97,27.68c30.57,0,55.35,24.78,55.35,55.35v345.95c0,30.57-24.78,55.35-55.35,55.35H83.03c-30.57,0-55.35-24.78-55.35-55.35V83.03c0-30.57,24.78-55.35,55.35-55.35h345.95"/>
  <g>
    <path class="cls-2" d="M188.71,370.64c-2.42,3.43-4.09,4.54-6.26,4.54-2.96,0-4.66-1.96-4.66-6.04v-46.29c0-27.64-10.47-38.83-36.94-38.83-29.72,0-46.34,11.64-47.43,28.81,1.6,6.8,6.54,10.34,13.9,10.34,7.96,0,14.63-5.54,15.14-19.27l.94-8.97c2.02-.21,3.86-.29,5.67-.29,13.18,0,16.72,5.4,16.72,23.69v6.75c-5.84,1.54-11.51,3.1-15.69,4.33-31.83,9.22-39.96,19.55-39.96,34.24,0,16.98,11.1,26.4,27.06,26.4,14.1,0,20.62-5.66,29.68-15.16,2.96,9.51,10.36,14.99,22.45,14.99s19.89-4.32,24.84-15.59l-5.47-3.65ZM132.97,373.56c-7,0-12.47-4.81-12.47-15.21,0-9.76,6.12-16.75,15.51-20.72,2.53-1.16,5.95-2.37,9.78-3.55v33.74c-5.95,4.27-9.07,5.75-12.82,5.75Z"/>
    <path class="cls-2" d="M272.37,284.76c-11.44,0-21.08,4.28-29.58,13.04v-30.33l.82-28.81-3.33-2.09-42.49,9.27v8.71l13,1.64v88.17c0,8.43-.09,20.65-.28,30.45l-10.72,2.29v9.27l38.49,2.77,3.51-12.13c6.96,8.23,15.46,12.3,26.93,12.3,22.93,0,43.48-20.26,43.48-53.07s-17.68-51.48-39.84-51.48ZM257.88,372.79c-5.49,0-9.88-2.01-14.09-5.63v-59.38c4.36-3.47,9.18-6.06,14.38-6.06,12.33,0,20.64,10.49,20.64,35.02s-8.83,36.05-20.93,36.05Z"/>
    <path class="cls-2" d="M391.18,370.54c-17.42,0-28.93-13.12-28.93-37.03,0-28.07,13.02-39.09,24.94-39.09,1.34,0,2.63.08,3.89.2l1.34,10.48c1,14.62,7.75,19.67,15.94,19.67,7.44,0,11.75-3.39,13.98-10.83-1.5-16.56-16.86-30.22-38.78-30.22-30.99,0-56.07,19.66-56.07,53.6s23.39,53.03,51.68,53.03c19.66,0,34.59-8.05,42.59-24.98l-7.23-6.38c-5.99,6.93-13.43,11.55-23.37,11.55Z"/>
  </g>
  <g>
    <path class="cls-1" d="M90.93,177.04c-2.74,0-5.45-1.22-7.26-3.55-3.11-4-2.39-9.78,1.61-12.89l25.86-20.11-25.98-20.93c-3.95-3.18-4.57-8.97-1.39-12.92,3.18-3.95,8.97-4.57,12.92-1.39l35.02,28.21c2.19,1.76,3.45,4.42,3.42,7.23-.02,2.81-1.33,5.45-3.55,7.17l-35.02,27.24c-1.68,1.3-3.66,1.94-5.63,1.94Z"/>
    <path class="cls-1" d="M215.1,180.42h-55.38c-4.82,0-9.05-3.63-9.33-8.44-.31-5.22,3.83-9.56,8.98-9.56h55.38c4.82,0,9.05,3.63,9.33,8.44.31,5.22-3.83,9.56-8.98,9.56Z"/>
  </g>
</svg>